<svg width="95" height="94" viewBox="0 0 95 94" fill="none" xmlns="http://www.w3.org/2000/svg">
<g clip-path="url(#clip0_101_27)">
<path d="M10 10H20V20H10V10Z" fill="black"/>
<path d="M30 0V30H0V0H30ZM25 5H5V25H25V5ZM20 60H10V70H20V60Z" fill="black"/>
<path d="M30 50V80H0V50H30ZM5 55V75H25V55H5ZM60 10H70V20H60V10Z" fill="black"/>
<path d="M50 0V30H80V0H50ZM75 5V25H55V5H75ZM40 5V0H45V10H40V20H35V5H40ZM40 30V20H45V30H40ZM30 40V35H35V30H40V40H45V35H70V40H50V45H35V40H30ZM30 40V45H10V40H5V45H0V35H15V40H30ZM80 45H75V35H80V45ZM75 45H70V55H80V50H75V45ZM55 45H65V50H60V55H55V45ZM65 60V55H60V60H55V65H45V70H60V60H65ZM65 60H80V65H70V70H65V60ZM45 55V60H50V50H35V55H45Z" fill="black"/>
<path d="M35 60H40V75H60V80H35V60ZM80 70V80H65V75H75V70H80Z" fill="black"/>
</g>
<circle cx="66" cy="65" r="29" fill="white"/>
<path d="M91.449 65C91.449 71.7495 88.7678 78.2225 83.9952 82.9951C79.2225 87.7678 72.7495 90.449 66 90.449C59.2505 90.449 52.7775 87.7678 48.0049 82.9951C43.2322 78.2225 40.551 71.7495 40.551 65C40.551 58.2505 43.2322 51.7775 48.0049 47.0049C52.7775 42.2322 59.2505 39.551 66 39.551C72.7495 39.551 79.2225 42.2322 83.9952 47.0049C88.7678 51.7775 91.449 58.2505 91.449 65ZM67.5906 53.8661C67.5906 53.4442 67.423 53.0397 67.1247 52.7414C66.8264 52.4431 66.4218 52.2755 66 52.2755C65.5782 52.2755 65.1736 52.4431 64.8753 52.7414C64.577 53.0397 64.4094 53.4442 64.4094 53.8661V63.4094H54.8661C54.4442 63.4094 54.0397 63.577 53.7414 63.8753C53.4431 64.1736 53.2755 64.5782 53.2755 65C53.2755 65.4218 53.4431 65.8264 53.7414 66.1247C54.0397 66.423 54.4442 66.5906 54.8661 66.5906H64.4094V76.1339C64.4094 76.5558 64.577 76.9603 64.8753 77.2586C65.1736 77.5569 65.5782 77.7245 66 77.7245C66.4218 77.7245 66.8264 77.5569 67.1247 77.2586C67.423 76.9603 67.5906 76.5558 67.5906 76.1339V66.5906H77.1339C77.5558 66.5906 77.9603 66.423 78.2586 66.1247C78.5569 65.8264 78.7245 65.4218 78.7245 65C78.7245 64.5782 78.5569 64.1736 78.2586 63.8753C77.9603 63.577 77.5558 63.4094 77.1339 63.4094H67.5906V53.8661Z" fill="black"/>
<defs>
<clipPath id="clip0_101_27">
<rect width="80" height="80" fill="white"/>
</clipPath>
</defs>
</svg>
