<svg width="102" height="101" viewBox="0 0 102 101" fill="none" xmlns="http://www.w3.org/2000/svg">
<g clip-path="url(#clip0_101_28)">
<path d="M10 10H20V20H10V10Z" fill="black"/>
<path d="M30 0V30H0V0H30ZM25 5H5V25H25V5ZM20 60H10V70H20V60Z" fill="black"/>
<path d="M30 50V80H0V50H30ZM5 55V75H25V55H5ZM60 10H70V20H60V10Z" fill="black"/>
<path d="M50 0V30H80V0H50ZM75 5V25H55V5H75ZM40 5V0H45V10H40V20H35V5H40ZM40 30V20H45V30H40ZM30 40V35H35V30H40V40H45V35H70V40H50V45H35V40H30ZM30 40V45H10V40H5V45H0V35H15V40H30ZM80 45H75V35H80V45ZM75 45H70V55H80V50H75V45ZM55 45H65V50H60V55H55V45ZM65 60V55H60V60H55V65H45V70H60V60H65ZM65 60H80V65H70V70H65V60ZM45 55V60H50V50H35V55H45Z" fill="black"/>
<path d="M35 60H40V75H60V80H35V60ZM80 70V80H65V75H75V70H80Z" fill="black"/>
</g>
<circle cx="66" cy="65" r="28" fill="white"/>
<g clip-path="url(#clip1_101_28)">
<path d="M85.5763 79.1839C89.3112 74.0874 90.984 67.7686 90.2601 61.4917C89.5362 55.2149 86.4689 49.4428 81.672 45.3302C76.8751 41.2177 70.7022 39.0681 64.3884 39.3114C58.0746 39.5546 52.0855 42.1729 47.6192 46.6424C43.153 51.1118 40.539 57.1028 40.3002 63.4168C40.0614 69.7308 42.2155 75.9021 46.3315 80.6961C50.4474 85.49 56.2217 88.5531 62.4991 89.2726C68.7765 89.992 75.0941 88.3147 80.1879 84.5762H80.184C80.2997 84.7305 80.4232 84.877 80.562 85.0197L95.412 99.8697C96.1353 100.593 97.1164 101 98.1396 101.001C99.1628 101.001 100.144 100.595 100.868 99.8717C101.592 99.1484 101.999 98.1673 101.999 97.1441C101.999 96.1209 101.593 95.1395 100.87 94.4157L86.0199 79.5657C85.882 79.4261 85.7337 79.3011 85.5763 79.1839ZM86.5715 64.357C86.5715 67.1429 86.0227 69.9015 84.9566 72.4754C83.8905 75.0492 82.3279 77.3879 80.3579 79.3578C78.388 81.3277 76.0494 82.8904 73.4755 83.9565C70.9017 85.0226 68.1431 85.5713 65.3572 85.5713C62.5713 85.5713 59.8127 85.0226 57.2388 83.9565C54.665 82.8904 52.3263 81.3277 50.3564 79.3578C48.3865 77.3879 46.8239 75.0492 45.7577 72.4754C44.6916 69.9015 44.1429 67.1429 44.1429 64.357C44.1429 58.7306 46.378 53.3347 50.3564 49.3563C54.3349 45.3778 59.7308 43.1427 65.3572 43.1427C70.9836 43.1427 76.3795 45.3778 80.3579 49.3563C84.3364 53.3347 86.5715 58.7306 86.5715 64.357Z" fill="black"/>
</g>
<defs>
<clipPath id="clip0_101_28">
<rect width="80" height="80" fill="white"/>
</clipPath>
<clipPath id="clip1_101_28">
<rect width="61.7143" height="61.7143" fill="white" transform="translate(40.2857 39.2857)"/>
</clipPath>
</defs>
</svg>
